<?xml version="1.0" encoding="utf-8"?>
<!-- Generator: Adobe Illustrator 27.5.0, SVG Export Plug-In . SVG Version: 6.00 Build 0)  -->
<svg version="1.1" id="Layer_1" xmlns="http://www.w3.org/2000/svg" xmlns:xlink="http://www.w3.org/1999/xlink" x="0px" y="0px"
	 viewBox="0 0 1920 1080" style="enable-background:new 0 0 1920 1080;" xml:space="preserve">
<style type="text/css">
	
		.st0{clip-path:url(#SVGID_00000048478398298283196250000017138692227449486744_);fill:url(#SVGID_00000010990660380799025030000016229963951623992974_);}
	
		.st1{opacity:0.71;clip-path:url(#SVGID_00000048478398298283196250000017138692227449486744_);fill:url(#SVGID_00000001627757636218578450000007206362512990792376_);enable-background:new    ;}
	
		.st2{opacity:0.71;clip-path:url(#SVGID_00000048478398298283196250000017138692227449486744_);fill:url(#SVGID_00000094615085701052916860000002638973083557500058_);enable-background:new    ;}
	
		.st3{opacity:0.71;clip-path:url(#SVGID_00000048478398298283196250000017138692227449486744_);fill:url(#SVGID_00000074407845013878897460000001518191087166948791_);enable-background:new    ;}
	.st4{clip-path:url(#SVGID_00000048478398298283196250000017138692227449486744_);}
	.st5{fill:url(#SVGID_00000121254298667995498230000008096990351124647812_);}
	
		.st6{clip-path:url(#SVGID_00000048478398298283196250000017138692227449486744_);fill:url(#SVGID_00000008115185918921385220000000790009172840944030_);}
	
		.st7{opacity:0.71;clip-path:url(#SVGID_00000048478398298283196250000017138692227449486744_);fill:url(#SVGID_00000173865562284243246890000012290729417542634892_);enable-background:new    ;}
	.st8{clip-path:url(#SVGID_00000048478398298283196250000017138692227449486744_);fill:none;}
	.st9{clip-path:url(#SVGID_00000031182416473980752320000004868884496745696900_);}
	.st10{fill:#FFF1DE;}
	.st11{fill:#FFFFFF;}
	.st12{opacity:0.1091;fill:#29CDE2;enable-background:new    ;}
	.st13{opacity:0.1091;fill:#004187;enable-background:new    ;}
	.st14{fill:#004187;}
	.st15{opacity:0.2;fill:#E79BA6;enable-background:new    ;}
</style>
<g>
	<defs>
		<rect id="SVGID_1_" y="0" width="1920" height="1080"/>
	</defs>
	<clipPath id="SVGID_00000155140473740061543030000001523614485846951330_">
		<use xlink:href="#SVGID_1_"  style="overflow:visible;"/>
	</clipPath>
	
		<radialGradient id="SVGID_00000129184070542993243590000010109877718766534320_" cx="933.7526" cy="1291.5773" r="1897.9274" gradientTransform="matrix(1 0 0 -1 0 1077.89)" gradientUnits="userSpaceOnUse">
		<stop  offset="0" style="stop-color:#FDFAFF"/>
		<stop  offset="1" style="stop-color:#29CDE2"/>
	</radialGradient>
	
		<rect y="0" style="clip-path:url(#SVGID_00000155140473740061543030000001523614485846951330_);fill:url(#SVGID_00000129184070542993243590000010109877718766534320_);" width="1920" height="1080"/>
	
		<linearGradient id="SVGID_00000043434417949260186930000012461110921105345967_" gradientUnits="userSpaceOnUse" x1="1359.0625" y1="492.5106" x2="1509.9781" y2="211.7368" gradientTransform="matrix(-1.0323 0.3574 -0.3388 -0.9786 1938.0355 789.2686)">
		<stop  offset="0" style="stop-color:#FDFAFF"/>
		<stop  offset="1" style="stop-color:#CDDDDF;stop-opacity:0"/>
	</linearGradient>
	
		<path style="opacity:0.71;clip-path:url(#SVGID_00000155140473740061543030000001523614485846951330_);fill:url(#SVGID_00000043434417949260186930000012461110921105345967_);enable-background:new    ;" d="
		M821.45,1076.91c-10.4-19.18-49.35-22.49-75.16-6.39c-5.01-17.74-24.94-30.35-49.71-31.44c-23.94-1.05-51.33,8.72-69.21,24.49
		c3.4-6.86-4.46-32.69-20.54-40.42c-18.13-8.71-45.1-10.4-67.1,0.78c15.93-18.37,19.19-41.05,8.2-57s-35.78-24.52-62.32-21.55
		c2.27-23.14-33.25-37.01-62.52-24.4c20.02-46.21,2.69-94.83-44.41-116.02s-121.62-11.81-171.26,23.43
		c-6.76-20.98-38.6-29.95-69.44-25.59c-30.85,4.37-60.39,19.27-86.7,35.6C19.71,806-44.75,797.78-104.8,812.3
		c-56.55,13.67-108.49,45.03-147.61,82.1l190.92,551.41l970.53-336.04c11.27-17.17,3.58-37.08-15.68-44.27
		C872.92,1057.87,843.2,1063.53,821.45,1076.91z"/>
	
		<linearGradient id="SVGID_00000142856527738523083400000003789677456439927196_" gradientUnits="userSpaceOnUse" x1="688.9464" y1="49.5127" x2="839.8621" y2="-231.2611" gradientTransform="matrix(1.0244 -0.3795 -0.3598 -0.9711 859.8842 1227.5691)">
		<stop  offset="0" style="stop-color:#FDFAFF"/>
		<stop  offset="1" style="stop-color:#CDDDDF;stop-opacity:0"/>
	</linearGradient>
	
		<path style="opacity:0.71;clip-path:url(#SVGID_00000155140473740061543030000001523614485846951330_);fill:url(#SVGID_00000142856527738523083400000003789677456439927196_);enable-background:new    ;" d="
		M1777.3,1475.46l-366.23-233.25c-44.81-22.98-62.3-71.54-39.38-117.83c22.93-46.28,86.44-86.36,147.17-90.66
		c-8.11-20.5,10.79-47.65,37.39-63.86c26.6-16.22,58.89-23.47,89.58-27.56c3.81-45.1,48.38-92.37,103.99-119.3
		c52.36-25.36,121.42-33.8,175.18-30l78.51,221.67l115.17,325.2L1777.3,1475.46z"/>
	
		<linearGradient id="SVGID_00000138566524904746856700000011528528223381234833_" gradientUnits="userSpaceOnUse" x1="118.988" y1="419.6527" x2="358.715" y2="-218.6014" gradientTransform="matrix(1 0 0 -1 0 1077.89)">
		<stop  offset="0" style="stop-color:#FDFAFF"/>
		<stop  offset="0.7223" style="stop-color:#CDDDDF;stop-opacity:0"/>
	</linearGradient>
	
		<path style="opacity:0.71;clip-path:url(#SVGID_00000155140473740061543030000001523614485846951330_);fill:url(#SVGID_00000138566524904746856700000011528528223381234833_);enable-background:new    ;" d="
		M-338.1,493.82c28.42-10.17,60.65,6.4,62.2,31.98c22.89-11.68,51.21-11.9,70.6-0.55c18.75,10.97,28.32,32.28,24.39,53.68
		c4.92-7.15,38.68-23.88,58.88-22.11c22.77,2,44.44,13.96,48.51,33.72c8.18-22.52,30.33-42.21,55.69-49.51
		c25.35-7.3,52.87-1.91,69.17,13.56c23.39-19.58,64.54-13.12,72.41,11.38c35.31-46.74,100.71-76.97,158.3-70.64
		c57.6,6.33,102.26,50.58,100.6,103.18c27.69-13.41,60.82-4.85,78.79,13.85c17.96,18.7,23.56,45.16,25.23,71.17
		C545,673.25,601.31,698.5,629.76,739.7c26.8,38.8,47.97,86.3,38.97,145.3s-80,180-80,180L-88.1,1223.68l-350.03-746.86
		c10.31-19.26,37.52-31.35,59.47-27.58C-355.33,453.25-339.61,472.43-338.1,493.82z"/>
	<g style="clip-path:url(#SVGID_00000155140473740061543030000001523614485846951330_);">
		
			<linearGradient id="SVGID_00000181786392364030129100000010333088074350497187_" gradientUnits="userSpaceOnUse" x1="733.8561" y1="906.3336" x2="1197.2823" y2="135.2882" gradientTransform="matrix(1 -9.427471e-03 -9.427471e-03 -1 -22.7213 1095.843)">
			<stop  offset="0" style="stop-color:#FDFAFF"/>
			<stop  offset="0.7223" style="stop-color:#CDDDDF;stop-opacity:0"/>
		</linearGradient>
		<path style="fill:url(#SVGID_00000181786392364030129100000010333088074350497187_);" d="M709.25,275.06
			c25.02,12.66,48.94,29.38,75.16,39.21l-0.53,9.01l-0.97,16.48l-0.97,16.48l-0.97,16.48L780,389.2l-0.97,16.48l-0.94,15.99
			c-3.7-2.85-7.37-5.74-11.02-8.65c-3.74-2.98-7.45-6-11.13-9.05c-3.66-3.03-7.3-6.1-10.9-9.19c-3.59-3.08-7.15-6.19-10.68-9.33
			c-3.51-3.13-7-6.28-10.46-9.46c-3.44-3.17-6.85-6.37-10.23-9.6c-3.37-3.22-6.7-6.46-10.01-9.74c-3.3-3.26-6.56-6.55-9.8-9.87
			c-3.23-3.3-6.43-6.63-9.59-9.99c-3.16-3.35-6.29-6.72-9.39-10.12c-3.09-3.39-6.14-6.81-9.17-10.26
			c-3.02-3.43-6.01-6.89-8.97-10.38c-2.95-3.47-5.88-6.97-8.77-10.5c-2.88-3.52-5.75-7.05-8.57-10.62
			c-2.82-3.56-5.6-7.15-8.36-10.75c-2.75-3.6-5.47-7.22-8.17-10.87c-2.69-3.64-5.35-7.3-7.97-10.99c-2.62-3.68-5.22-7.38-7.78-11.11
			c-0.11-0.17-0.23-0.33-0.35-0.5c0.66-0.17,1.32-0.33,1.98-0.5c13.71-3.53,27.49-6.69,41.32-9.48c12.1-2.44,24.24-4.6,36.42-6.48
			c10.97-1.69,21.98-3.15,33.01-4.38c10.12-1.13,20.27-2.06,30.43-2.8c9.46-0.69,18.93-1.21,28.41-1.56
			c8.9-0.33,17.82-0.5,26.74-0.53c8.45-0.03,16.9,0.08,25.36,0.32c8.05,0.23,16.11,0.58,24.16,1.05c0.07,0,0.14,0.01,0.2,0.01
			l-23,29.86l-23.17,30.11l-19.49,25.33l-3.9-1.46c-13.33-4.73-26.8-9.09-40.27-13.4C733.4,283.08,720.11,280.55,709.25,275.06z"/>
	</g>
	
		<linearGradient id="SVGID_00000092418223587593397160000000092476332342437281_" gradientUnits="userSpaceOnUse" x1="313.977" y1="952.89" x2="2860.7771" y2="66.6409" gradientTransform="matrix(1 0 0 -1 0 1077.89)">
		<stop  offset="0" style="stop-color:#FDFAFF"/>
		<stop  offset="0.609" style="stop-color:#CDDDDF;stop-opacity:0"/>
	</linearGradient>
	
		<path style="clip-path:url(#SVGID_00000155140473740061543030000001523614485846951330_);fill:url(#SVGID_00000092418223587593397160000000092476332342437281_);" d="
		M1992.8,760.37c-198.91-61.5-397.37-124.39-593.83-193.42c-197.01-69.23-391.99-144.75-581.54-232.54
		c-3.35-1.55-6.3-2.63-8.59-5.35c23.88,1.51,51.78,15.59,74.89,22.88c25.64,8.08,51.3,16.09,76.99,24.03
		c51.37,15.88,102.82,31.49,154.36,46.81c103.08,30.65,206.48,60.18,310.2,88.58c195.09,53.43,391.46,102.67,588.95,146.47
		c1.04,0.23,2.08,0.46,3.12,0.69c13.62,3.01,27.24,6.02,40.86,9.01"/>
	
		<linearGradient id="SVGID_00000173862796610061203890000016889064065936533138_" gradientUnits="userSpaceOnUse" x1="2237.4751" y1="-320.4569" x2="2525.7837" y2="-856.8455" gradientTransform="matrix(0.4577 0.2848 0.3662 -0.5886 706.0184 -200.5546)">
		<stop  offset="0" style="stop-color:#FDFAFF"/>
		<stop  offset="1" style="stop-color:#CDDDDF;stop-opacity:0"/>
	</linearGradient>
	
		<path style="opacity:0.71;clip-path:url(#SVGID_00000155140473740061543030000001523614485846951330_);fill:url(#SVGID_00000173862796610061203890000016889064065936533138_);enable-background:new    ;" d="
		M964.58,985.38c18.29-24.01,54.36-27.66,69.59-7.05c12.84-22.27,36.46-37.87,58.91-38.92c21.7-1.01,41.33,11.65,49.69,31.74
		c0.23-8.68,19.44-41.09,37.34-50.61c20.19-10.73,44.87-12.5,59.05,1.86c-5.4-23.34,2.45-51.92,19.74-71.85s43.31-30.39,65.4-26.3
		c8.95-29.16,46.99-46.15,66.93-29.89c4.16-58.43,42.54-119.4,94.3-145.46c51.75-26.06,113.3-13.27,140.56,31.75
		c15.92-26.32,48.37-37.19,73.62-31.29s44.36,25.04,59.92,45.95c43.33-40.38,104.3-49.87,150.61-30.81
		c43.61,17.95,74.75,58.11,91.82,105.29L2204,1159l-632.26,302.35l-700.3-435.76c-1.84-21.76,14.4-46.72,34.86-55.52
		C928.02,960.74,951.66,968.26,964.58,985.38z"/>
	
		<rect y="0" style="clip-path:url(#SVGID_00000155140473740061543030000001523614485846951330_);fill:none;" width="1920" height="1080"/>
	<g style="clip-path:url(#SVGID_00000155140473740061543030000001523614485846951330_);">
		<g>
			<defs>
				<path id="SVGID_00000118379858478332336030000014500236304838518921_" d="M821.45,1076.91c-10.4-19.18-49.35-22.49-75.16-6.39
					c-5.01-17.74-24.94-30.35-49.71-31.44c-23.94-1.05-51.33,8.72-69.21,24.49c3.4-6.86-4.46-32.69-20.54-40.42
					c-18.13-8.71-45.1-10.4-67.1,0.78c15.93-18.37,19.19-41.05,8.2-57s-35.78-24.52-62.32-21.55c2.27-23.14-33.25-37.01-62.52-24.4
					c20.02-46.21,2.69-94.83-44.41-116.02s-121.62-11.81-171.26,23.43c-6.76-20.98-38.6-29.95-69.44-25.59
					c-30.85,4.37-60.39,19.27-86.7,35.6C19.71,806-44.75,797.78-104.8,812.3c-56.55,13.67-11.09-136.37-50.2-99.3l702-68l371,397
					c11.27-17.17-5.37,30.69-24.63,23.5C872.92,1057.87,843.2,1063.53,821.45,1076.91z"/>
			</defs>
			<clipPath id="SVGID_00000070804928968129899360000002889279932642522266_">
				<use xlink:href="#SVGID_00000118379858478332336030000014500236304838518921_"  style="overflow:visible;"/>
			</clipPath>
			<g style="clip-path:url(#SVGID_00000070804928968129899360000002889279932642522266_);">
				<g>
					<g>
						<path d="M211.31,757.59L211.31,757.59c0.08,0.03,0.16,0.01,0.18,0C211.42,757.59,211.36,757.6,211.31,757.59z"/>
					</g>
					<g>
						<path d="M192.09,742.75C192.09,742.75,192.09,742.76,192.09,742.75c0-0.16-0.01-0.19-0.01-0.17
							C192.08,742.64,192.09,742.7,192.09,742.75z"/>
					</g>
					<g>
						<path d="M233.31,699.94c0.04-0.01,0.1-0.06,0.14-0.13c0,0,0,0-0.01,0C233.41,699.86,233.36,699.9,233.31,699.94z"/>
					</g>
					<g>
						<path d="M234.39,699.31c-0.05,0.03-0.04,0.05,0.14-0.06c-0.01,0-0.02,0.01-0.03,0.01
							C234.46,699.28,234.43,699.29,234.39,699.31z"/>
					</g>
					<g>
						<path d="M250.93,751.14c0,0.01-0.01,0.02-0.01,0.03C250.92,751.17,250.93,751.16,250.93,751.14
							C250.93,751.15,250.93,751.15,250.93,751.14z"/>
					</g>
					<g>
						<path d="M254.65,725.58v-0.01V725.58z"/>
					</g>
					<path class="st10" d="M265.03,859.67c-5.18-15.03-10.93-29.16-24.86-38.04c1.14,0.72,6.09-5.78,6.64-6.63
						c1.84-2.81,3.03-5.85,3.73-9.12c1.79-8.37,0.64-16.32-1.65-24.44c-1.45-5.12-3.14-8.25-5.14-12.26
						c-0.35-0.7,0.88-1.8,1.28-2.38c11.58-16.49,12.86-39.63,5.39-58.06c-1.19-2.94-2.63-5.83-4.73-8.21
						c-3.1-3.5-8.39-6.17-12.89-3.58c-2.76,1.59-4.22,4.89-4.33,8.08c-0.17,4.85,2.44,8.61,4.05,13.01
						c1.7,4.63,2.88,9.44,3.53,14.33c0.74,5.55,0.79,11.19,0.14,16.75c-0.37,3.16-0.72,11.36-5.1,11.62
						c-0.9,0.05-1.78-0.21-2.65-0.45c-8.95-2.45-21.25-3.51-29.77,1.3c-0.39,0.22-0.84,0.47-1.28,0.35
						c-1.31-0.37-1.95-3.69-2.34-4.81c-2.11-6.1-3.17-12.56-3.2-19.02c-0.02-3.26,0.23-6.52,0.72-9.75
						c0.25-1.62,0.56-3.22,0.93-4.82c0.32-1.36,0.87-2.69,0.74-4.08c-0.06-0.62-0.12-1.24-0.25-1.85c-0.79-3.58-4.38-3.28-7.31-3.21
						c-3.15,0.08-6.3,0.12-9.42,0.56c-1.58,0.31-3.16,0.77-4.45,1.77c-1.37,1.06-2.06,2.86-2.91,4.34c-1.83,3.2-3.67,6.39-5.5,9.59
						c-1.43,2.49-3.51,5.44-2.93,8.45c0.84,4.36,6.18,5.74,10,5.26c0.4-0.05,0.79-0.12,1.19-0.07c1.81,0.2,2.22,3.17,2.77,4.52
						c0.85,2.09,1.8,4.15,2.84,6.16c1.39,2.68,2.94,5.27,4.65,7.75c0.8,1.17,1.6,2.53,2.61,3.52c0.74,0.72,2.19,1.54,2.19,2.75
						c0,1.37-1.5,3.48-2.07,4.69c-6.15,12.97-11.55,27.52-2.16,40.49c2.41,3.33,5.47,6.15,8.82,8.51
						c-1.6-1.13-12.06,11.52-13.31,13.18c-5.14,6.88-8.99,14.71-11.28,22.98c-0.42,1.5-0.79,3.23-0.03,4.83
						c0.43,0.91,1.16,1.59,1.82,2.13c3.75,3.08,8.52,4.76,13.35,4.76c0.36,0,0.72-0.01,1.08-0.03c-0.1,1.45-0.15,2.9-0.18,4.35
						c-0.22,12.09,1.99,24.36,6.67,36.73c0.49,1.3,1.06,2.64,2.16,3.56c1.42,1.19,3.2,1.29,4.9,1.3c0.11,0,0.22,0,0.33,0
						c4.03,0,5.11-0.17,9.13-0.52c0.62-0.05,1.55-0.13,2.32-0.75c1-0.81,1.24-2.17,1.37-2.9c0.56-3.19,0.83-6.45,0.81-9.7
						c2.38,0.36,4.78,0.54,7.19,0.54c1.96,0,3.91-0.12,5.85-0.36c-0.15,3.77,0.16,7.55,0.93,11.23c0.11,0.52,0.56,0.88,1.09,0.88
						c0.02,0,0.04,0,0.06,0l12.29-0.76c1.22-0.06,2.88-0.14,4.2-1.2c1.31-1.04,1.87-2.67,2.34-4.25c2.73-9.29,4.18-18.48,4.35-27.63
						c0.05-2.82,0-5.65-0.19-8.47c0.2,0.31,0.55,0.5,0.92,0.5c0.07,0,0.14-0.01,0.22-0.02c4.52-0.9,8.83-2.85,12.49-5.65
						c0.85-0.65,1.7-1.39,2.17-2.44C266.15,863.25,265.63,861.41,265.03,859.67z M179.77,760.52
						C179.7,760.42,179.74,760.47,179.77,760.52L179.77,760.52z"/>
					<g>
						<path d="M250.51,809.68L250.51,809.68c-0.02,0.03-0.03,0.05-0.04,0.07C250.48,809.73,250.49,809.71,250.51,809.68z"/>
					</g>
					<g>
						<path d="M252.19,803.26c0-0.01,0-0.03,0-0.04C252.16,803.45,252.18,803.33,252.19,803.26z"/>
					</g>
					<g>
						<path d="M230.67,704.57c0,0.02-0.01,0.04-0.01,0.06l0,0C230.68,704.5,230.67,704.53,230.67,704.57z"/>
					</g>
					<g>
						<path d="M238.36,698.13c-0.05-0.01-0.08-0.02-0.1-0.03l0,0C238.28,698.12,238.32,698.13,238.36,698.13z"/>
					</g>
				</g>
				<g>
					<g>
						<path d="M250.89,751.25c0.01-0.02,0.02-0.05,0.03-0.08C250.91,751.2,250.9,751.23,250.89,751.25z"/>
					</g>
					<g>
						<path d="M211.31,757.59L211.31,757.59c0.04,0.01,0.11,0.01,0.18,0C211.47,757.6,211.4,757.61,211.31,757.59z"/>
					</g>
					<g>
						<path d="M192.08,742.58c0-0.02,0.01,0.01,0.01,0.18c0,0,0,0,0-0.01C192.09,742.7,192.08,742.64,192.08,742.58z"/>
					</g>
					<g>
						<path d="M233.31,699.94c0.05-0.04,0.1-0.08,0.13-0.12c0,0,0,0,0.01,0C233.41,699.88,233.35,699.92,233.31,699.94z"/>
					</g>
					<g>
						<path d="M234.39,699.31c0.04-0.02,0.08-0.03,0.12-0.05c0.01,0,0.02-0.01,0.03-0.01C234.35,699.36,234.34,699.34,234.39,699.31
							z"/>
					</g>
					<g>
						<path d="M250.93,751.14C250.93,751.15,250.93,751.15,250.93,751.14c-0.01,0.02-0.01,0.02-0.01,0.03
							C250.92,751.16,250.93,751.15,250.93,751.14z"/>
					</g>
					<g>
						<polygon points="254.65,725.58 254.65,725.58 254.65,725.57 						"/>
					</g>
				</g>
				<g>
					<circle class="st11" cx="191.97" cy="794.64" r="1.23"/>
				</g>
				<g>
					<circle class="st11" cx="231.19" cy="795.14" r="1.23"/>
				</g>
				<g>
					<g>
						<g>
							<path class="st12" d="M193.02,718.01c-1.12,4.51-3.56,8.89-6.12,12.7c-1.97,2.92-4.2,5.64-6.64,8.18
								c-1.66,1.73-3.93,4.42-6.28,5.12c0.06-0.02,0.61,0.25,0.81,0.16c0.87-0.36,1.56-0.92,2.28-1.52c2.9-2.42,5.54-5.31,7.86-8.29
								c3.86-4.97,7.01-10.51,8.9-16.53C193.82,717.91,193.06,717.84,193.02,718.01z"/>
							<path class="st12" d="M193.04,718.13c-1.5,5.96-5.07,11.71-8.9,16.48c-1.73,2.16-3.62,4.25-5.62,6.15
								c-1.28,1.22-2.76,2.83-4.51,3.36c0.05-0.02,0.52,0.13,0.69,0.06c1.74-0.7,3.19-2.23,4.52-3.52
								c3.13-3.04,5.98-6.45,8.39-10.08c2.6-3.91,4.75-8.21,6.14-12.71C193.73,717.96,193.09,717.95,193.04,718.13z"/>
							<path class="st12" d="M193.03,717.92c-1.25,4.98-4.03,9.85-6.99,13.98c-2.23,3.11-4.78,6.04-7.55,8.67
								c-1.29,1.22-2.77,2.83-4.52,3.36c-0.07,0.02,0.02,0.1,0.07,0.08c1.75-0.55,3.23-2.15,4.52-3.38
								c2.77-2.64,5.32-5.57,7.54-8.68c2.99-4.17,5.68-9.01,7-14.01C193.11,717.89,193.04,717.87,193.03,717.92z"/>
							<path class="st12" d="M192.98,718.26c-1.31,5.05-4.07,9.76-7.08,13.95c-2.24,3.12-4.65,6.04-7.44,8.69
								c-1.28,1.22-2.76,2.82-4.5,3.35c-0.01,0,0.01,0.07,0.01,0.07c1.75-0.53,3.24-2.14,4.53-3.37c2.76-2.62,5.37-5.56,7.56-8.68
								c2.94-4.18,5.73-9,7-14C193.07,718.24,192.99,718.21,192.98,718.26z"/>
							<path class="st12" d="M193.01,718.18c-1.5,5.98-5.14,11.8-8.89,16.48c-1.73,2.16-3.62,4.25-5.62,6.15
								c-1.28,1.21-2.76,2.83-4.5,3.36c0.09-0.03,0.62,0.11,0.84,0.02c1.74-0.73,3.19-2.25,4.52-3.55c3.13-3.05,5.97-6.46,8.39-10.1
								c2.6-3.92,4.73-8.21,6.14-12.71C193.84,717.96,193.07,717.95,193.01,718.18z"/>
							<path class="st12" d="M193.04,718.06c-0.56,2.23-1.55,4.48-2.57,6.53c-0.82,1.66-1.72,3.28-2.69,4.87
								c3.35-5.54-8.19,12.9-13.78,14.6c0.07-0.02,0.62,0.21,0.82,0.12c1.44-0.6,2.61-1.76,3.73-2.81c1.57-1.47,3.07-3.04,4.48-4.67
								c4.78-5.53,8.63-11.88,10.84-18.87C193.85,717.92,193.09,717.87,193.04,718.06z"/>
							<path class="st12" d="M192.95,718.23c-1.15,4.51-3.55,8.88-6.13,12.7c-1.96,2.91-4.19,5.64-6.63,8.17
								c-1.66,1.72-3.84,4.37-6.25,5.11c-0.14,0.04,0.29,0.06,0.35,0.04c1.15-0.41,2.06-1.21,2.97-2c3.05-2.62,5.75-5.74,8.18-8.93
								c3.43-4.52,6.4-9.76,7.96-15.26C193.42,718.01,192.97,718.14,192.95,718.23z"/>
							<path class="st12" d="M193.08,718c-1.27,4.98-4.02,9.84-6.99,13.98c-2.23,3.11-4.77,6.04-7.54,8.67
								c-1.28,1.22-2.77,2.83-4.51,3.37c-0.07,0.02,0.04,0.09,0.08,0.07c1.75-0.56,3.23-2.15,4.52-3.39
								c2.77-2.64,5.32-5.57,7.55-8.68c2.99-4.17,5.67-9.01,7-14.01C193.21,717.95,193.09,717.96,193.08,718z"/>
							<path class="st12" d="M192.99,718.27c-1.26,4.93-4.06,9.88-7,13.98c-1.73,2.42-3.7,4.73-5.76,6.88
								c-1.65,1.72-3.84,4.37-6.23,5.11c-0.17,0.05,0.45,0.04,0.56,0c1.12-0.43,2.03-1.23,2.94-2.02c3.05-2.64,5.75-5.76,8.17-8.97
								c3.46-4.57,6.31-9.78,7.97-15.29C193.6,718.05,193.04,718.08,192.99,718.27z"/>
							<path class="st12" d="M193.01,718.12c-0.99,3.98-3.1,7.96-5.25,11.4c-2.46,3.95-5.81,7.95-9.27,11.23
								c-1.28,1.22-2.76,2.83-4.51,3.36c0.08-0.02,0.63,0.16,0.85,0.07c2.09-0.87,3.85-2.86,5.4-4.45c2.05-2.09,3.93-4.29,5.68-6.63
								c3.46-4.6,6.22-9.78,7.96-15.27C193.85,717.94,193.06,717.91,193.01,718.12z"/>
							<path class="st12" d="M193.04,718.21c-1.26,4.94-4.06,9.87-7.01,13.98c-1.73,2.42-3.7,4.74-5.76,6.88
								c-1.68,1.74-3.86,4.38-6.29,5.13c0.03-0.01,0.4,0.07,0.55,0.02c1.45-0.56,2.61-1.71,3.73-2.75c3.07-2.84,5.94-6.06,8.33-9.49
								c2.98-4.27,5.52-9.01,7.01-14.02C193.58,718.02,193.08,718.04,193.04,718.21z"/>
						</g>
					</g>
				</g>
				<g>
					<g>
						<g>
							<path class="st13" d="M193.02,718.01c-1.12,4.51-3.56,8.89-6.12,12.7c-1.97,2.92-4.2,5.64-6.64,8.18
								c-1.66,1.73-3.94,4.42-6.28,5.12c0.06-0.02,0.61,0.25,0.81,0.16c0.87-0.36,1.56-0.91,2.28-1.52c2.9-2.42,5.54-5.31,7.86-8.29
								c3.86-4.97,7.01-10.51,8.9-16.53C193.82,717.91,193.06,717.84,193.02,718.01z"/>
							<path class="st13" d="M193.04,718.13c-1.5,5.96-5.07,11.71-8.9,16.48c-1.73,2.16-3.62,4.25-5.62,6.15
								c-1.28,1.21-2.76,2.83-4.51,3.36c0.05-0.02,0.52,0.13,0.69,0.06c1.74-0.7,3.19-2.23,4.52-3.52
								c3.13-3.04,5.98-6.45,8.39-10.08c2.6-3.91,4.74-8.21,6.14-12.71C193.73,717.96,193.09,717.95,193.04,718.13z"/>
							<path class="st13" d="M193.03,717.92c-1.25,4.98-4.03,9.85-6.99,13.98c-2.23,3.11-4.78,6.04-7.55,8.67
								c-1.28,1.22-2.77,2.83-4.52,3.36c-0.07,0.02,0.02,0.1,0.07,0.08c1.75-0.55,3.23-2.15,4.52-3.38
								c2.77-2.64,5.32-5.57,7.54-8.68c2.99-4.17,5.68-9.01,7-14.01C193.11,717.89,193.04,717.87,193.03,717.92z"/>
							<path class="st13" d="M192.98,718.26c-1.31,5.05-4.07,9.76-7.08,13.95c-2.24,3.12-4.65,6.04-7.44,8.69
								c-1.28,1.22-2.76,2.82-4.5,3.35c-0.01,0,0.01,0.07,0.01,0.08c1.75-0.53,3.24-2.14,4.54-3.37c2.76-2.62,5.37-5.56,7.56-8.68
								c2.94-4.18,5.73-9,7-14C193.07,718.24,192.99,718.21,192.98,718.26z"/>
							<path class="st13" d="M193.01,718.18c-1.5,5.98-5.14,11.8-8.89,16.48c-1.73,2.16-3.62,4.25-5.62,6.15
								c-1.28,1.21-2.76,2.83-4.5,3.36c0.09-0.03,0.62,0.11,0.84,0.02c1.74-0.73,3.19-2.25,4.51-3.55c3.13-3.05,5.97-6.46,8.39-10.1
								c2.61-3.93,4.72-8.21,6.14-12.71C193.84,717.96,193.07,717.95,193.01,718.18z"/>
							<path class="st13" d="M193.04,718.06c-0.56,2.23-1.55,4.48-2.57,6.53c-0.82,1.66-1.72,3.28-2.69,4.87
								c3.36-5.56-8.19,12.91-13.78,14.6c0.07-0.02,0.62,0.21,0.82,0.12c1.44-0.6,2.61-1.76,3.73-2.81
								c1.57-1.47,3.07-3.04,4.48-4.67c4.78-5.53,8.63-11.88,10.84-18.87C193.85,717.92,193.09,717.87,193.04,718.06z"/>
							<path class="st13" d="M192.95,718.23c-1.15,4.51-3.55,8.87-6.13,12.7c-1.96,2.91-4.19,5.64-6.63,8.17
								c-1.66,1.72-3.84,4.38-6.25,5.11c-0.14,0.04,0.29,0.06,0.35,0.04c1.15-0.4,2.06-1.21,2.97-1.99
								c3.05-2.62,5.75-5.74,8.18-8.93c3.44-4.53,6.4-9.76,7.96-15.26C193.42,718.01,192.97,718.14,192.95,718.23z"/>
							<path class="st13" d="M193.08,718c-1.27,4.98-4.02,9.84-6.99,13.98c-2.23,3.11-4.77,6.04-7.54,8.67
								c-1.28,1.22-2.77,2.83-4.51,3.37c-0.07,0.02,0.04,0.09,0.08,0.07c1.75-0.56,3.23-2.15,4.52-3.39
								c2.77-2.64,5.32-5.57,7.55-8.68c2.99-4.17,5.67-9.01,7-14.01C193.21,717.95,193.09,717.96,193.08,718z"/>
							<path class="st13" d="M192.99,718.27c-1.26,4.93-4.06,9.88-7,13.98c-1.73,2.42-3.7,4.73-5.76,6.88
								c-1.65,1.72-3.84,4.37-6.23,5.11c-0.17,0.05,0.45,0.04,0.56,0c1.12-0.43,2.03-1.23,2.94-2.02c3.05-2.64,5.75-5.76,8.17-8.97
								c3.46-4.57,6.31-9.78,7.97-15.29C193.6,718.05,193.04,718.08,192.99,718.27z"/>
							<path class="st13" d="M193.01,718.12c-0.99,3.98-3.1,7.96-5.25,11.4c-2.46,3.95-5.81,7.95-9.27,11.23
								c-1.28,1.22-2.76,2.83-4.51,3.36c0.08-0.02,0.63,0.16,0.85,0.07c2.09-0.87,3.85-2.86,5.4-4.45c2.05-2.09,3.93-4.3,5.68-6.63
								c3.46-4.6,6.22-9.77,7.96-15.27C193.85,717.94,193.06,717.91,193.01,718.12z"/>
							<path class="st13" d="M193.04,718.21c-1.26,4.94-4.06,9.87-7,13.98c-1.73,2.42-3.7,4.74-5.76,6.88
								c-1.68,1.74-3.86,4.38-6.29,5.13c0.03-0.01,0.4,0.07,0.55,0.02c1.45-0.56,2.61-1.71,3.73-2.75c3.07-2.84,5.94-6.06,8.33-9.49
								c2.98-4.28,5.51-9.01,7.01-14.02C193.58,718.02,193.08,718.04,193.04,718.21z"/>
						</g>
					</g>
				</g>
				<g>
					<g>
						<g>
							<path class="st13" d="M194.02,836.02c-2.47,5.28-4.81,10.52-6.55,16.1c-0.79,2.2-1.39,4.44-1.78,6.74
								c-0.92,3.69-1.48,7.44-1.67,11.25c0.01-0.06,0.74-0.12,0.76-0.29c0.32-2.6,0.64-5.19,0.95-7.79
								c0.56-3.46,1.41-6.83,2.55-10.13c1.76-5.57,4.08-10.76,6.56-16.06C194.8,835.94,194.11,835.83,194.02,836.02z"/>
							<path class="st13" d="M194.05,836.14c-2.47,5.28-4.81,10.52-6.55,16.1c-0.79,2.2-1.39,4.44-1.78,6.74
								c-0.92,3.69-1.48,7.44-1.68,11.25c0.01-0.08,0.64-0.18,0.67-0.36c0.32-2.6,0.63-5.19,0.95-7.79
								c0.55-3.46,1.4-6.84,2.55-10.14c1.76-5.57,4.08-10.77,6.56-16.06C194.71,835.99,194.13,835.95,194.05,836.14z"/>
							<path class="st13" d="M194.03,835.9c-2.94,6.29-5.9,12.65-7.59,19.42c-1.24,4.98-1.81,9.54-2.42,14.68
								c0,0.03,0.05,0.09,0.05,0.05c0.52-7.34,2.02-14.44,4.5-21.3c1.59-4.37,3.43-8.63,5.52-12.78
								C194.12,835.91,194.06,835.86,194.03,835.9z"/>
							<path class="st13" d="M193.98,836.27c-2.47,5.28-4.81,10.53-6.56,16.1c-0.79,2.2-1.39,4.44-1.78,6.75
								c-0.92,3.69-1.48,7.44-1.68,11.25c-0.01,0.06,0.08,0.06,0.09,0.01c0.31-2.61,0.62-5.21,0.93-7.82
								c0.54-3.47,1.39-6.86,2.53-10.17c1.75-5.59,4.07-10.79,6.55-16.1C194.08,836.25,194,836.22,193.98,836.27z"/>
							<path class="st13" d="M194.01,836.18c-2.47,5.28-4.81,10.52-6.55,16.1c-0.79,2.2-1.39,4.44-1.78,6.74
								c-0.92,3.69-1.48,7.44-1.68,11.25c0.01-0.12,0.79-0.24,0.82-0.46c0.32-2.59,0.64-5.19,0.95-7.78
								c0.56-3.46,1.41-6.83,2.55-10.13c1.76-5.57,4.08-10.76,6.56-16.06C194.81,835.99,194.12,835.95,194.01,836.18z"/>
							<path class="st13" d="M194.04,836.06c-2.47,5.28-4.81,10.52-6.55,16.1c-0.79,2.2-1.39,4.44-1.78,6.74
								c-0.92,3.69-1.48,7.44-1.67,11.25c0.01-0.08,0.76-0.16,0.78-0.35c0.32-2.59,0.64-5.19,0.95-7.78
								c0.56-3.46,1.41-6.83,2.55-10.13c1.76-5.57,4.08-10.76,6.56-16.06C194.82,835.95,194.14,835.86,194.04,836.06z"/>
							<path class="st13" d="M193.95,836.23c-2.94,6.29-5.9,12.65-7.59,19.42c-1.24,4.98-1.81,9.54-2.42,14.68
								c-0.01,0.06,0.43-0.13,0.44-0.22c0.52-7.32,2.03-14.41,4.51-21.27c1.59-4.37,3.43-8.63,5.52-12.78
								C194.42,836.03,193.99,836.13,193.95,836.23z"/>
							<path class="st13" d="M194.09,835.99c-1.97,4.21-3.97,8.41-5.52,12.8c-0.69,2.21-1.38,4.42-2.07,6.63
								c-1.28,4.81-2.09,9.7-2.42,14.68c-0.01,0.06,0.09,0.05,0.1,0c0.34-4.97,1.15-9.86,2.43-14.67c1.91-6.72,4.44-13.19,7.59-19.4
								C194.22,835.96,194.11,835.95,194.09,835.99z"/>
							<path class="st13" d="M194,836.25c-1.98,4.22-3.99,8.42-5.54,12.82c-0.69,2.21-1.38,4.42-2.07,6.63
								c-1.28,4.82-2.09,9.71-2.42,14.68c0.01-0.1,0.6-0.22,0.62-0.42c0.35-4.96,1.16-9.83,2.45-14.63
								c1.91-6.71,4.44-13.16,7.59-19.36C194.62,835.98,194.06,836.11,194,836.25z"/>
							<path class="st13" d="M194.01,836.12c-2.47,5.28-4.81,10.52-6.55,16.1c-0.79,2.2-1.39,4.44-1.78,6.74
								c-0.92,3.69-1.48,7.44-1.67,11.25c0.01-0.1,0.79-0.2,0.81-0.41c0.32-2.59,0.64-5.19,0.95-7.78
								c0.56-3.46,1.41-6.83,2.55-10.13c1.76-5.57,4.08-10.76,6.56-16.06C194.82,835.97,194.12,835.9,194.01,836.12z"/>
							<path class="st13" d="M194.04,836.18c-2.49,5.3-4.83,10.54-6.57,16.12c-0.35,1.11-0.69,2.22-1.04,3.33
								c-1.28,4.82-2.09,9.71-2.42,14.68c0.01-0.07,0.53-0.17,0.55-0.34c0.27-6.14,1.61-12.05,4.01-17.73
								c1.26-5.71,3.27-11.13,6.03-16.26C194.6,835.96,194.1,836.07,194.04,836.18z"/>
						</g>
					</g>
				</g>
				<g>
					<g>
						<g>
							<path class="st13" d="M239.53,837.51c3.93,7.54,6.68,15.43,8.24,23.66c0.89,3.69,1.44,7.45,1.65,11.25
								c0-0.01,0.41-0.43,0.39-0.6c-0.37-5-1.19-9.92-2.45-14.77c-0.58-2.36-1.26-4.68-2.07-6.97c-2.01-6-2.89-7.54-5.49-13.27
								C239.85,836.92,239.45,837.32,239.53,837.51z"/>
							<path class="st13" d="M239.56,837.66c3.22,6.47,5.72,13.2,7.5,20.18c1.24,4.84,2.04,9.75,2.39,14.73
								c0-0.03,0.36-0.48,0.34-0.66c-0.23-3.82-0.79-7.58-1.7-11.28c-0.67-3.55-1.6-7.03-2.81-10.45c-1.6-4.6-3.48-8.84-5.5-13.28
								C239.84,837.03,239.47,837.46,239.56,837.66z"/>
							<path class="st13" d="M239.47,837.84c2.49,5.48,4.79,10.94,6.49,16.73c0.76,2.27,1.35,4.59,1.75,6.95
								c0.89,3.69,1.44,7.44,1.65,11.24c0.01,0.09,0.11-0.04,0.1-0.08c-0.31-2.59-0.61-5.18-0.92-7.77
								c-0.56-3.55-1.39-7.03-2.49-10.45c-1.71-5.82-3.98-11.21-6.49-16.74C239.52,837.65,239.45,837.8,239.47,837.84z"/>
							<path class="st13" d="M239.52,837.7c1.63,3.19,3.03,6.48,4.21,9.87c3.18,7.98,5.07,16.33,5.68,25.04
								c-0.01-0.06,0.45-0.59,0.43-0.82c-0.85-6.98-0.76-8.14-2.46-14.79c-1.8-7.07-4.55-13.61-7.56-20.23
								C239.9,836.94,239.41,837.46,239.52,837.7z"/>
							<path class="st13" d="M239.55,837.56c3.2,6.45,5.7,13.18,7.5,20.18c1.24,4.84,2.04,9.75,2.39,14.74
								c0-0.03,0.41-0.49,0.39-0.68c-0.23-3.82-0.8-7.58-1.7-11.28c-0.67-3.55-1.61-7.04-2.81-10.45c-2.01-5.99-2.9-7.58-5.5-13.28
								C239.88,836.91,239.45,837.35,239.55,837.56z"/>
							<path class="st13" d="M239.47,837.79c2.49,5.48,4.79,10.94,6.49,16.73c0.76,2.27,1.35,4.59,1.75,6.96
								c0.89,3.69,1.44,7.44,1.65,11.25c0,0.01,0.27-0.34,0.26-0.46c-0.31-2.59-0.62-5.19-0.93-7.78c-0.57-3.55-1.4-7.04-2.51-10.45
								c-1.71-5.82-4-11.22-6.51-16.74C239.66,837.26,239.42,837.69,239.47,837.79z"/>
							<path class="st13" d="M239.56,837.49c2.49,5.48,4.79,10.94,6.49,16.73c0.77,2.27,1.35,4.59,1.76,6.96
								c0.89,3.69,1.44,7.44,1.65,11.25c0.01,0.05,0.09,0.03,0.08-0.03c-0.31-2.59-0.61-5.18-0.92-7.77
								c-0.56-3.55-1.39-7.03-2.49-10.45c-1.71-5.82-3.99-11.21-6.5-16.74C239.61,837.4,239.53,837.44,239.56,837.49z"/>
							<path class="st13" d="M239.52,837.85c3.21,6.48,5.71,13.21,7.49,20.19c1.24,4.84,2.03,9.75,2.38,14.73
								c-0.01-0.04,0.36-0.52,0.34-0.71c-0.22-3.81-0.79-7.57-1.69-11.28c-0.67-3.55-1.6-7.03-2.8-10.45
								c-1.6-4.6-3.48-8.85-5.5-13.29C239.81,837.19,239.42,837.64,239.52,837.85z"/>
							<path class="st13" d="M239.52,837.63c2.13,4.29,3.95,8.71,5.47,13.26c2.41,7.04,3.89,14.26,4.42,21.65
								c-0.01-0.04,0.45-0.54,0.42-0.75c-0.62-5.05-1.21-9.89-2.46-14.8c-1.79-7.02-4.56-13.63-7.55-20.22
								C239.89,836.92,239.42,837.4,239.52,837.63z"/>
							<path class="st13" d="M239.54,837.74c2.48,5.49,4.78,10.95,6.49,16.75c0.76,2.27,1.35,4.59,1.75,6.96
								c0.89,3.69,1.44,7.44,1.65,11.25c0-0.02,0.31-0.44,0.29-0.6c-0.31-2.59-0.63-5.19-0.94-7.78c-0.57-3.55-1.41-7.04-2.52-10.46
								c-1.72-5.82-4-11.22-6.51-16.75C239.75,837.1,239.48,837.6,239.54,837.74z"/>
							<path class="st13" d="M239.5,837.88c2.49,5.48,4.79,10.94,6.49,16.73c0.76,2.27,1.35,4.59,1.75,6.95
								c0.89,3.69,1.44,7.44,1.65,11.24c0.01,0.05,0.09,0.01,0.08-0.04c-0.3-2.59-0.61-5.18-0.91-7.77
								c-0.56-3.55-1.39-7.03-2.49-10.45c-1.71-5.82-3.98-11.21-6.49-16.74C239.55,837.75,239.48,837.84,239.5,837.88z"/>
						</g>
					</g>
				</g>
				<g>
					<g>
						<g>
							<path class="st13" d="M203.23,899.9c4.16,1.84,9.15,2.76,13.63,2.94c4.28,0.17,8.63-0.26,12.8-1.25
								c1.93-0.46,3.93-0.98,5.7-1.91c-0.08,0.04-0.52-0.4-0.69-0.32c-4.64,2.07-9.91,2.74-14.94,2.91
								c-5.79,0.19-11.47-0.89-16.89-2.93C202.85,899.33,203.08,899.83,203.23,899.9z"/>
							<path class="st13" d="M203.3,900.05c4.18,1.86,9.12,2.76,13.63,2.94c4.28,0.17,8.64-0.27,12.81-1.26
								c1.93-0.46,3.94-0.99,5.71-1.92c-0.07,0.04-0.53-0.48-0.7-0.4c-4.64,2.09-9.93,2.76-14.97,2.93
								c-5.78,0.19-11.49-0.87-16.89-2.93C202.91,899.41,203.13,899.97,203.3,900.05z"/>
							<path class="st13" d="M225.47,902.31c3.32-0.57,6.83-1.14,9.86-2.7c0.01-0.01,0.03-0.08,0.02-0.07
								c-2.98,1.59-6.55,2.15-9.82,2.72C225.51,902.27,225.49,902.31,225.47,902.31z"/>
							<path class="st13" d="M203.24,900.23c4.17,1.86,9.12,2.76,13.62,2.94c4.28,0.17,8.64-0.27,12.8-1.28
								c1.93-0.46,3.93-0.99,5.69-1.93c0.03-0.02,0.04-0.09,0-0.07c-2.13,1.1-4.61,1.74-6.94,2.2c-3.35,0.66-6.76,1.04-10.18,1.01
								c-5.01-0.04-10.41-0.98-15.01-2.99C203.17,900.08,203.2,900.21,203.24,900.23z"/>
							<path class="st13" d="M203.25,900.07c4.6,2.06,10.05,2.97,15.04,3c4.22,0.03,8.53-0.49,12.61-1.61
								c1.52-0.42,3.09-0.89,4.48-1.63c-0.07,0.04-0.57-0.57-0.75-0.5c-5.17,2.28-11.25,3.02-16.85,2.95c-5.13-0.07-10.21-1.22-15-3
								C202.95,899.35,203.03,899.97,203.25,900.07z"/>
							<path class="st13" d="M203.24,899.95c4.19,1.85,9.11,2.76,13.63,2.94c4.28,0.17,8.63-0.26,12.8-1.26
								c1.93-0.46,3.93-0.98,5.7-1.91c-0.09,0.05-0.56-0.46-0.74-0.38c-4.65,2.05-9.9,2.73-14.93,2.89
								c-5.79,0.19-11.47-0.9-16.89-2.93C202.84,899.31,203.07,899.87,203.24,899.95z"/>
							<path class="st13" d="M203.25,900.17c4.13,1.85,9.16,2.76,13.63,2.94c4.28,0.17,8.64-0.27,12.81-1.28
								c1.93-0.46,3.94-0.99,5.71-1.94c0.01,0-0.26-0.32-0.35-0.28c-4.61,2.22-10.05,2.86-15.08,3.04
								c-5.75,0.21-11.57-0.76-16.92-2.92C203.02,899.72,203.16,900.13,203.25,900.17z"/>
							<path class="st13" d="M203.27,899.92c5.83,2.54,12.61,3.31,18.89,2.84c4.38-0.33,9.3-1.03,13.26-3.08
								c0.06-0.03-0.06-0.11-0.1-0.09c-6.64,3.46-15.18,3.98-22.58,2.76c-3.2-0.53-6.49-1.25-9.48-2.55
								C203.19,899.79,203.23,899.9,203.27,899.92z"/>
							<path class="st13" d="M203.3,900.22c4.16,1.88,9.13,2.78,13.64,2.95c4.29,0.17,8.64-0.27,12.81-1.28
								c1.93-0.47,3.95-0.99,5.72-1.94c-0.03,0.02-0.45-0.52-0.59-0.46c-5.16,2.37-11.34,3.1-16.95,3.04
								c-5.11-0.06-10.25-1.17-15.01-3C203.06,899.58,203.11,900.13,203.3,900.22z"/>
							<path class="st13" d="M203.23,900c4.18,1.85,9.11,2.76,13.63,2.94c4.28,0.17,8.63-0.26,12.8-1.26
								c1.93-0.46,3.93-0.98,5.7-1.92c-0.08,0.04-0.56-0.51-0.73-0.44c-5.17,2.28-11.25,3.03-16.84,2.95
								c-5.12-0.07-10.19-1.21-14.98-2.99C202.84,899.31,203.06,899.93,203.23,900z"/>
							<path class="st13" d="M203.32,900.15c4.6,2.07,10.05,2.98,15.06,3.01c4.22,0.02,8.54-0.5,12.62-1.62
								c1.52-0.42,3.1-0.9,4.5-1.65c-0.04,0.02-0.44-0.46-0.58-0.4c-4.63,2.16-9.99,2.81-15.03,2.99
								c-5.76,0.2-11.53-0.82-16.91-2.92C202.99,899.56,203.18,900.08,203.32,900.15z"/>
							<path class="st13" d="M203.29,900.28c4.19,1.87,9.06,2.76,13.62,2.94c3.84,0.15,7.83-0.16,11.59-0.99
								c2.33-0.52,4.79-1.09,6.91-2.23c0.01-0.01,0.05-0.07,0.02-0.06c-4.57,2.4-10.14,2.96-15.2,3.16
								c-5.51,0.21-11.76-0.62-16.94-2.92C203.24,900.15,203.24,900.26,203.29,900.28z"/>
						</g>
					</g>
				</g>
				<g>
					<g>
						<g>
							<path class="st12" d="M214.18,802.69c-1.82,0-2-0.07-0.53-0.23c1.19-0.33,1.29-0.22,0.28,0.34c0.12-0.12-0.24,0.06-0.29,0.12
								c-0.36,0.45-0.06,2.67-0.08,2.14c0.1,1.97,0.28,3.91,0.31,5.89c0,0.05,0.08,0.04,0.08-0.01c-0.03-1.98-0.21-3.93-0.31-5.9
								c-0.14-2.92,0.14-1.38,1.2-2.87c0.58-0.81,0-1.86-0.99-2.04c-0.86-0.16-2.01,0.53-1.92,1.5c0.1,1.1,1.48,1.72,2.31,1.1
								C214.29,802.7,214.22,802.66,214.18,802.69z"/>
							<path class="st12" d="M214.24,802.72c-0.57,0.43-1.74,0.1-2.03-0.54c0.13-0.54,0.25-1.07,0.38-1.61
								c0.62-0.03,1.24-0.05,1.86-0.08c-0.16,0.79-0.33,1.59-0.49,2.38c-0.09,0.03-0.18,0.07-0.27,0.1c0,0.01-0.03,0.01-0.03,0.02
								c-0.02,0.07-0.09,0.21-0.12,0.28c-0.26,0.49,0.05,1.98,0.09,2.55c0.12,1.74,0.26,3.42,0.29,5.18c0,0.04,0.04-0.03,0.04-0.05
								c-0.04-1.96-0.3-3.92-0.33-5.88c-0.05-2.89,0.05-1.66,1.04-2.67c0.44-0.45,0.65-0.91,0.25-1.53
								c-0.75-1.17-3.03-0.81-2.93,0.76c0.07,1.05,1.44,1.74,2.24,1.14C214.25,802.78,214.25,802.71,214.24,802.72z"/>
							<path class="st12" d="M214.19,802.76c1.14-0.85-0.34,0.07-0.59,0.35c-0.37,0.42,0.02,2.76,0.06,3.39
								c0.11,1.51,0.19,2.99,0.22,4.5c0,0.03,0.08,0.04,0.08,0.01c-0.02-1.54-0.1-3.06-0.2-4.59c-0.15-0.81-0.13-1.61,0.06-2.41
								c-0.2-0.67-0.05-1.09,0.47-1.25c0.37-0.43,0.9-0.57,0.86-1.26c-0.06-0.93-1.15-1.44-1.96-1.25
								c-2.41,0.58-0.51,3.73,1.07,2.54C214.28,802.76,214.21,802.75,214.19,802.76z"/>
							<path class="st12" d="M214.19,802.71c-0.5-0.02-1-0.05-1.5-0.07c0.72-0.58,1.44-1.16,2.15-1.75c0.2,0.49-0.17,1.43-0.58,1.74
								c-0.25,0.19-0.46,0.18-0.64,0.41c-0.17,0.23-0.05,1.33-0.05,1.1c0.03,2.27,0.26,4.53,0.3,6.81c0,0.03,0.07,0.04,0.07,0.01
								c-0.03-2.31-0.48-4.73-0.16-7.02c0.2-1.44,0.18-0.86,0.9-1.61c0.03-0.03,0.29-0.29,0.31-0.32c0.51-0.98-0.62-1.87-1.5-1.84
								c-2.81,0.09-1.03,3.89,0.74,2.57C214.29,802.72,214.21,802.7,214.19,802.71z"/>
							<path class="st12" d="M214.17,802.81c-2.03,0.17-2.56-0.57-1.59-2.2c2.13-0.42,2.8,0.2,2.02,1.85
								c-0.26,0.34-0.73,0.36-1.02,0.61c-0.38,0.33,0,3.59-0.07,2.11c0.1,1.96,0.31,3.91,0.35,5.87c0,0.02,0.07,0.03,0.07,0.02
								c-0.03-1.29-0.08-2.57-0.2-3.86c-0.07-0.76-0.53-3.42-0.2-3.86c0.38-0.51,1.16-0.63,1.47-1.22c0.41-0.8-0.37-1.73-1.16-1.88
								c-1.08-0.21-2.44,0.92-1.73,2.02c0.48,0.75,1.42,1.08,2.12,0.56C214.24,802.83,214.18,802.8,214.17,802.81z"/>
							<path class="st12" d="M214.19,802.81c-2.25,0.29-2.17-0.46,0.24-2.25C215.08,801.61,215,802.36,214.19,802.81
								c-0.16,0.1-0.46,0.15-0.59,0.27c-0.36,0.33,0,3.46-0.07,2.12c0.1,1.96,0.31,3.91,0.35,5.87c0,0.04,0.08,0.04,0.08-0.01
								c-0.03-1.29-0.08-2.57-0.2-3.86c-0.09-0.99-0.51-3.54,0.16-4.19c0.33-0.32,0.87-0.41,1.11-0.87c0.42-0.81-0.35-1.75-1.14-1.9
								c-0.86-0.16-2.05,0.52-1.95,1.51c0.11,1.09,1.51,1.71,2.32,1.09C214.29,802.81,214.22,802.79,214.19,802.81z"/>
							<path class="st12" d="M214.23,802.72c-0.56,0.36-1.08,0.34-1.55-0.07c1.31-2.12,2.1-2.5,2.39-1.15
								c-0.27,0.75-0.73,1.22-1.38,1.42c-0.01,0-0.01,0.01-0.02,0.01c-0.34,0.76-0.14,0.71-0.08,2.13c0.08,1.97,0.28,3.92,0.3,5.9
								c0,0.02,0.05,0.05,0.05,0.05c-0.02-1.31-0.05-2.59-0.16-3.89c-0.06-0.67-0.1-1.35-0.13-2.03c-0.01-0.62-0.01-1.24-0.02-1.86
								c0.2-0.39,0.78-0.52,1.07-0.85c0.95-1.07-0.25-2.5-1.55-2.14c-2.19,0.6-0.57,3.75,1.06,2.55
								C214.22,802.78,214.21,802.73,214.23,802.72z"/>
							<path class="st12" d="M214.22,802.79c-2.26,0.28-2.18-0.48,0.23-2.27c-0.26,0.84-0.52,1.68-0.79,2.51
								c-0.01,0.05-0.07,0.02-0.1,0.15c-0.17,0.86-0.03,1.8,0.03,2.68c0.12,1.73,0.26,3.44,0.3,5.18c0,0.04,0.07,0,0.07-0.02
								c-0.03-1.3-0.08-2.57-0.2-3.86c-0.07-0.67-0.12-1.34-0.15-2.01c0.1-0.73,0.19-1.45,0.29-2.18c0.13-0.17,0.63-0.37,0.8-0.53
								c0.91-0.93,0.12-2.24-1.13-2.21c-0.76,0.02-1.71,0.6-1.63,1.49c0.1,1.1,1.5,1.69,2.31,1.08
								C214.3,802.77,214.24,802.78,214.22,802.79z"/>
						</g>
					</g>
				</g>
				<g>
					<g>
						<g>
							<path class="st13" d="M214.18,802.69c-1.82,0-2-0.07-0.53-0.23c1.19-0.33,1.29-0.22,0.28,0.34c0.13-0.12-0.24,0.06-0.29,0.12
								c-0.36,0.45-0.06,2.66-0.08,2.14c0.1,1.97,0.28,3.91,0.31,5.89c0,0.05,0.08,0.04,0.08-0.01c-0.03-1.98-0.21-3.93-0.31-5.9
								c-0.14-2.92,0.14-1.38,1.2-2.87c0.58-0.81,0-1.86-0.99-2.04c-0.86-0.16-2.01,0.53-1.92,1.5c0.1,1.1,1.48,1.72,2.31,1.1
								C214.29,802.7,214.22,802.66,214.18,802.69z"/>
							<path class="st13" d="M214.24,802.72c-0.8,0.46-1.48,0.28-2.03-0.54c-0.16-1.65,0.59-2.21,2.24-1.68
								c0.41,1.39,0.16,2.22-0.76,2.48c-0.01,0.01-0.02,0.01-0.02,0.02c-0.4,2.49,0.2,5.49,0.25,8.02c0,0.04,0.04-0.03,0.04-0.05
								c-0.04-1.96-0.3-3.92-0.33-5.88c-0.05-2.89,0.05-1.66,1.04-2.67c0.44-0.45,0.65-0.91,0.25-1.53
								c-0.75-1.17-3.03-0.81-2.93,0.76c0.07,1.05,1.44,1.74,2.24,1.14C214.25,802.78,214.25,802.71,214.24,802.72z"/>
							<path class="st13" d="M214.19,802.76c1.14-0.85-0.34,0.07-0.59,0.35c-0.37,0.42,0.01,2.76,0.06,3.39
								c0.11,1.51,0.19,2.99,0.22,4.5c0,0.03,0.08,0.04,0.08,0.01c-0.02-1.54-0.1-3.06-0.2-4.59c-0.15-0.81-0.13-1.61,0.06-2.41
								c-0.2-0.67-0.05-1.09,0.47-1.25c0.37-0.44,0.9-0.57,0.85-1.26c-0.06-0.93-1.15-1.44-1.96-1.25
								c-2.41,0.58-0.51,3.73,1.07,2.54C214.28,802.76,214.21,802.75,214.19,802.76z"/>
							<path class="st13" d="M214.19,802.71c-0.5-0.02-1-0.05-1.5-0.07c0.72-0.58,1.44-1.16,2.15-1.74c0.2,0.5-0.17,1.43-0.58,1.74
								c-0.25,0.19-0.46,0.18-0.64,0.41c-0.17,0.23-0.05,1.32-0.05,1.1c0.03,2.27,0.26,4.53,0.3,6.81c0,0.03,0.07,0.04,0.07,0.01
								c-0.03-2.31-0.48-4.73-0.16-7.02c0.2-1.44,0.18-0.86,0.9-1.61c0.03-0.03,0.29-0.29,0.31-0.32c0.51-0.98-0.62-1.87-1.5-1.84
								c-2.81,0.09-1.03,3.89,0.74,2.57C214.29,802.72,214.21,802.7,214.19,802.71z"/>
							<path class="st13" d="M214.17,802.81c-2.03,0.17-2.56-0.57-1.59-2.2c2.13-0.42,2.8,0.2,2.02,1.85
								c-0.26,0.34-0.73,0.36-1.02,0.61c-0.38,0.33,0,3.59-0.07,2.11c0.1,1.96,0.31,3.9,0.35,5.87c0,0.02,0.07,0.03,0.07,0.02
								c-0.03-1.29-0.08-2.57-0.2-3.86c-0.07-0.76-0.53-3.42-0.2-3.86c0.38-0.51,1.16-0.63,1.47-1.22c0.41-0.8-0.37-1.73-1.16-1.88
								c-1.08-0.21-2.44,0.92-1.73,2.02c0.48,0.75,1.42,1.07,2.12,0.56C214.24,802.83,214.18,802.8,214.17,802.81z"/>
							<path class="st13" d="M214.19,802.81c-2.25,0.29-2.17-0.46,0.24-2.25C215.08,801.61,215,802.36,214.19,802.81
								c-0.16,0.1-0.46,0.15-0.59,0.27c-0.36,0.33,0,3.46-0.07,2.12c0.1,1.96,0.31,3.9,0.35,5.87c0,0.04,0.08,0.04,0.08-0.01
								c-0.03-1.29-0.08-2.57-0.2-3.86c-0.09-0.99-0.51-3.54,0.16-4.19c0.33-0.32,0.87-0.41,1.11-0.87c0.42-0.81-0.35-1.75-1.14-1.9
								c-0.86-0.16-2.05,0.52-1.95,1.51c0.11,1.09,1.51,1.71,2.32,1.09C214.29,802.81,214.22,802.79,214.19,802.81z"/>
							<path class="st13" d="M214.22,802.72c-0.56,0.36-1.08,0.34-1.55-0.07c0.8-0.38,1.59-0.77,2.39-1.15
								c-0.27,0.74-0.73,1.22-1.38,1.42c-0.01,0-0.01,0.01-0.02,0.01c-0.38,0.86-0.09,1.91-0.04,2.83c0.11,1.74,0.24,3.45,0.26,5.2
								c0,0.02,0.05,0.05,0.05,0.05c-0.02-1.31-0.05-2.59-0.16-3.89c-0.06-0.67-0.1-1.35-0.13-2.03c-0.01-0.62-0.01-1.24-0.02-1.86
								c0.2-0.39,0.78-0.52,1.07-0.85c0.95-1.07-0.25-2.5-1.55-2.14c-2.19,0.6-0.56,3.76,1.06,2.55
								C214.22,802.78,214.21,802.73,214.22,802.72z"/>
							<path class="st13" d="M214.22,802.79c-2.26,0.28-2.18-0.48,0.23-2.27c-0.26,0.84-0.52,1.68-0.79,2.51
								c-0.01,0.05-0.07,0.02-0.1,0.15c-0.17,0.86-0.03,1.8,0.03,2.68c0.12,1.73,0.26,3.44,0.3,5.18c0,0.04,0.07,0,0.07-0.02
								c-0.03-1.3-0.08-2.57-0.2-3.86c-0.07-0.67-0.12-1.34-0.15-2.01c0.1-0.73,0.19-1.45,0.29-2.18c0.13-0.17,0.63-0.37,0.8-0.53
								c0.91-0.93,0.12-2.24-1.13-2.21c-0.76,0.02-1.71,0.6-1.63,1.49c0.1,1.1,1.5,1.69,2.31,1.08
								C214.3,802.77,214.24,802.78,214.22,802.79z"/>
						</g>
					</g>
				</g>
				<path class="st14" d="M197.84,793.86c-0.35-0.82-0.92-1.54-1.7-1.98c-0.91-0.52-2.01-0.65-3.02-0.37
					c-1.9,0.52-3.36,2.32-3.42,4.29c-0.03,1.07,0.44,2.14,1.2,2.88c0.78,0.77,1.82,1.21,2.91,1.27c0.11,0.01,0.21,0,0.32,0
					c0.11,0.01,0.22,0.01,0.33,0.01c0.99-0.04,2.02-0.46,2.67-1.23c0.38-0.46,0.61-0.85,0.83-1.41c0.15-0.4,0.21-0.81,0.25-1.23
					C198.3,795.33,198.14,794.56,197.84,793.86z"/>
				<path class="st14" d="M237.14,795.17c-0.33-1.28-1.34-2.32-2.55-2.81c-0.28-0.18-0.59-0.32-0.9-0.39c-1.18-0.26-2.48,0.1-3.32,1
					c-0.12,0.13-0.23,0.27-0.33,0.41c-1,1.03-1.53,2.51-1.1,3.95c0.28,0.94,0.95,1.79,1.83,2.23c0.61,0.31,1.24,0.47,1.89,0.49
					c0.26,0.06,0.52,0.08,0.79,0.07C235.91,800.04,237.75,797.56,237.14,795.17z"/>
				<path class="st10" d="M254.48,798.96c1.49-3.47,2.98-6.95,4.47-10.42c0.66-1.54,1.32-3.07,1.98-4.61
					c0.68,0.01,1.36,0.1,2.03,0.2c2.79,0.44,8.56,1.11,11.27,1.91c1.22,0.36,2.44,0.75,3.63,1.23c0.08,0.03,0.15,0.06,0.23,0.1
					c0.12,0.05,0.4,0.18,0.52,0.24s0.23,0.13,0.35,0.2l-0.01-0.01c0,0,0,0,0.01,0c0,0,0,0.01,0.01,0.01s0.01,0.01,0.02,0.01
					c0.02,0.02,0.04,0.04,0.06,0.05c0,0.01,0.01,0.02,0.01,0.03c0.01,0.02,0.01,0.04,0.02,0.06c-0.02-0.03-0.06-0.08-0.09-0.14
					c0.04,0.07,0.09,0.15,0.12,0.22l0,0c0.02,0.07,0.05,0.14,0.07,0.22c0.16,0.53,0.27,1.08,0.34,1.62
					c0.27,2.62,0.11,5.29-0.14,7.91c-0.07,0.7-0.16,1.4-0.24,2.1c-0.09,0.78-0.08,1.58-0.11,2.36c-0.06,1.38-0.12,2.76-0.18,4.15
					c-0.07,1.54-0.14,3.09-0.2,4.63c-0.06,1.3-0.04,2.63-0.19,3.92c-0.02,0.11-0.04,0.21-0.07,0.32c-0.02,0.06-0.04,0.13-0.06,0.19
					c-0.02,0.03-0.04,0.07-0.07,0.1c0.01-0.01,0.02-0.01,0.04-0.02l-0.01,0.01c-0.01,0.01-0.02,0.01-0.03,0.02s-0.01,0.02-0.02,0.03
					c-0.01,0.01-0.02,0.01-0.02,0.02c-0.02,0.01-0.05,0.02-0.08,0.03c0.01-0.01,0.02-0.02,0.04-0.03c-0.02,0.01-0.04,0.02-0.07,0.04
					c-0.03,0.01-0.07,0.02-0.07,0.03c-0.25,0.07-0.5,0.12-0.75,0.16c-3.27,0.31-6.64,0.12-9.89-0.36c-2.47-0.4-7.91-0.99-10.28-1.78
					c-1.2-0.4-2.36-0.86-3.53-1.35c-0.1-0.05-0.2-0.09-0.3-0.14c-0.23-0.11-0.46-0.23-0.69-0.36c-0.4-0.22-0.78-0.47-1.15-0.73
					c-0.03-0.02-0.06-0.04-0.08-0.06c-0.11-0.1-0.22-0.21-0.33-0.32c-0.08-0.08-0.15-0.17-0.23-0.25c-0.09-0.15-0.17-0.3-0.25-0.46
					c-0.02-0.05-0.04-0.11-0.06-0.16c-0.02-0.09-0.04-0.17-0.06-0.26c-0.01-0.22,0-0.44,0.02-0.67c0.32-1.65,1.13-3.2,1.78-4.73
					C252.98,802.46,253.73,800.71,254.48,798.96z"/>
				<path class="st15" d="M190.24,801.44c-1.16-0.53-1.88,0.46-2.57,1.4c-0.03-0.17-0.07-0.34-0.1-0.51
					c-0.15-0.68-1.08-1.03-1.64-0.63c-0.82,0.58-1.47,1.26-1.99,2.12c-0.74,1.22,1.21,2.28,1.94,1.06c0-0.01,0.01-0.01,0.02-0.02
					c0.16,0.42,0.37,0.8,0.76,1.05c0.32,0.21,0.8,0.17,1.11-0.03c0.48-0.31,0.83-0.77,1.2-1.19c0.33-0.37,0.68-0.95,1.09-1.27
					C190.85,803.09,191.22,801.89,190.24,801.44z"/>
				<path class="st15" d="M244.07,799.56c-1.16-0.53-1.88,0.46-2.57,1.4c-0.03-0.17-0.07-0.34-0.1-0.51
					c-0.15-0.68-1.08-1.03-1.64-0.63c-0.82,0.58-1.47,1.26-1.99,2.12c-0.74,1.22,1.21,2.28,1.94,1.06c0-0.01,0.01-0.01,0.02-0.02
					c0.16,0.42,0.37,0.8,0.76,1.05c0.32,0.21,0.8,0.17,1.11-0.03c0.48-0.31,0.83-0.77,1.2-1.19c0.33-0.37,0.68-0.95,1.09-1.27
					C244.68,801.21,245.05,800,244.07,799.56z"/>
			</g>
		</g>
	</g>
</g>
</svg>
