<svg xmlns="http://www.w3.org/2000/svg" viewBox="2330.575 6196.231 83.275 83.275" version="1.1" id="svg5190"><defs id="defs5133"><clipPath id="clip-path"><circle id="guld" class="cls-1" cx="6.977" cy="6.977" r="6.977" style="fill:#f2f2f2"/></clipPath><style id="style5129">.cls-1{fill:#f2f2f2}.cls-3{stroke:rgba(242,242,242,.5);stroke-width:.25px}.cls-4{fill:#931f1f}.cls-5{fill:#9d761f}.cls-6{clip-path:url(#clip-path)}.cls-7{stroke:none}.cls-8{fill:none}</style></defs><g id="ultra_sonic" data-name="ultra sonic" transform="translate(1222 5578.194)"><path id="Rectangle_1" data-name="Rectangle 1" transform="translate(1131.024 643.596)" style="fill:#292929" d="M0 0h43.382v31.247H0z"/><path id="Rectangle_2" data-name="Rectangle 2" transform="translate(1138.609 650.573)" d="M0 0h25.331v17.595H0z"/><g id="eye1" transform="translate(1108.575 642.231)"><g id="sort" class="cls-3" style="stroke-width:.25px"><circle class="cls-7" cx="17.444" cy="17.444" id="ellipse5137" r="17.444" style="stroke:none"/><circle class="cls-8" cx="17.444" cy="17.444" id="ellipse5139" r="17.319" style="fill:none"/></g><circle id="rød" class="cls-4" cx="10.77" cy="10.77" transform="translate(6.674 6.674)" r="10.77" style="fill:#931f1f"/><circle id="guld-3" data-name="guld" class="cls-5" cx="8.039" cy="8.039" transform="translate(9.404 9.404)" r="8.039" style="fill:#9d761f"/><circle id="guld-4" data-name="guld" class="cls-1" cx="6.977" cy="6.977" transform="translate(10.466 10.466)" r="6.977" style="fill:#f2f2f2"/><g id="Group_5" data-name="Group 5" transform="translate(10.466 10.466)"><g id="Mask_Group_8" data-name="Mask Group 8" class="cls-6" clip-path="url(#clip-path)"><g id="Group_17" data-name="Group 17" transform="rotate(-30 2.416 14.943)"><path id="Rectangle_84" data-name="Rectangle 84" class="cls-5" transform="translate(2.048)" style="fill:#9d761f" d="M0 0h.607v22.791H0z"/><path id="Rectangle_91" data-name="Rectangle 91" class="cls-5" transform="rotate(-90 10.049 10.049)" style="fill:#9d761f" d="M0 0h.607v22.507H0z"/><path id="Rectangle_85" data-name="Rectangle 85" class="cls-5" transform="translate(4.93)" style="fill:#9d761f" d="M0 0h.607v22.791H0z"/><path id="Rectangle_97" data-name="Rectangle 97" class="cls-5" transform="rotate(-90 8.608 8.608)" style="fill:#9d761f" d="M0 0h.607v22.507H0z"/><path id="Rectangle_86" data-name="Rectangle 86" class="cls-5" transform="translate(7.812)" style="fill:#9d761f" d="M0 0h.607v22.791H0z"/><path id="Rectangle_96" data-name="Rectangle 96" class="cls-5" transform="rotate(-90 7.167 7.167)" style="fill:#9d761f" d="M0 0h.607v22.507H0z"/><path id="Rectangle_87" data-name="Rectangle 87" class="cls-5" transform="translate(10.694)" style="fill:#9d761f" d="M0 0h.607v22.791H0z"/><path id="Rectangle_95" data-name="Rectangle 95" class="cls-5" transform="rotate(-90 5.726 5.726)" style="fill:#9d761f" d="M0 0h.607v22.507H0z"/><path id="Rectangle_88" data-name="Rectangle 88" class="cls-5" transform="translate(13.576)" style="fill:#9d761f" d="M0 0h.607v22.791H0z"/><path id="Rectangle_94" data-name="Rectangle 94" class="cls-5" transform="rotate(-90 4.285 4.285)" style="fill:#9d761f" d="M0 0h.607v22.507H0z"/><path id="Rectangle_89" data-name="Rectangle 89" class="cls-5" transform="translate(16.458)" style="fill:#9d761f" d="M0 0h.607v22.791H0z"/><path id="Rectangle_93" data-name="Rectangle 93" class="cls-5" transform="rotate(-90 2.844 2.844)" style="fill:#9d761f" d="M0 0h.607v22.507H0z"/><path id="Rectangle_90" data-name="Rectangle 90" class="cls-5" transform="translate(19.34)" style="fill:#9d761f" d="M0 0h.607v22.791H0z"/><path id="Rectangle_92" data-name="Rectangle 92" class="cls-5" transform="rotate(-90 1.403 1.403)" style="fill:#9d761f" d="M0 0h.607v22.507H0z"/></g></g></g></g><g id="eye2" transform="translate(1156.962 642.231)"><g id="sort-2" data-name="sort" class="cls-3" style="stroke-width:.25px"><circle class="cls-7" cx="17.444" cy="17.444" id="ellipse5163" r="17.444" style="stroke:none"/><circle class="cls-8" cx="17.444" cy="17.444" id="ellipse5165" r="17.319" style="fill:none"/></g><circle id="rød-2" data-name="rød" class="cls-4" cx="10.77" cy="10.77" transform="translate(6.674 6.674)" r="10.77" style="fill:#931f1f"/><circle id="guld-5" data-name="guld" class="cls-5" cx="8.039" cy="8.039" transform="translate(9.404 9.404)" r="8.039" style="fill:#9d761f"/><circle id="guld-6" data-name="guld" class="cls-1" cx="6.977" cy="6.977" transform="translate(10.466 10.466)" r="6.977" style="fill:#f2f2f2"/><g id="Group_18" data-name="Group 18" transform="translate(10.466 10.466)"><g id="Mask_Group_8-2" data-name="Mask Group 8" class="cls-6" clip-path="url(#clip-path)"><g id="Group_17-2" data-name="Group 17" transform="rotate(-30 2.416 14.943)"><path id="Rectangle_84-2" data-name="Rectangle 84" class="cls-5" transform="translate(2.048)" style="fill:#9d761f" d="M0 0h.607v22.791H0z"/><path id="Rectangle_91-2" data-name="Rectangle 91" class="cls-5" transform="rotate(-90 10.049 10.049)" style="fill:#9d761f" d="M0 0h.607v22.507H0z"/><path id="Rectangle_85-2" data-name="Rectangle 85" class="cls-5" transform="translate(4.93)" style="fill:#9d761f" d="M0 0h.607v22.791H0z"/><path id="Rectangle_97-2" data-name="Rectangle 97" class="cls-5" transform="rotate(-90 8.608 8.608)" style="fill:#9d761f" d="M0 0h.607v22.507H0z"/><path id="Rectangle_86-2" data-name="Rectangle 86" class="cls-5" transform="translate(7.812)" style="fill:#9d761f" d="M0 0h.607v22.791H0z"/><path id="Rectangle_96-2" data-name="Rectangle 96" class="cls-5" transform="rotate(-90 7.167 7.167)" style="fill:#9d761f" d="M0 0h.607v22.507H0z"/><path id="Rectangle_87-2" data-name="Rectangle 87" class="cls-5" transform="translate(10.694)" style="fill:#9d761f" d="M0 0h.607v22.791H0z"/><path id="Rectangle_95-2" data-name="Rectangle 95" class="cls-5" transform="rotate(-90 5.726 5.726)" style="fill:#9d761f" d="M0 0h.607v22.507H0z"/><path id="Rectangle_88-2" data-name="Rectangle 88" class="cls-5" transform="translate(13.576)" style="fill:#9d761f" d="M0 0h.607v22.791H0z"/><path id="Rectangle_94-2" data-name="Rectangle 94" class="cls-5" transform="rotate(-90 4.285 4.285)" style="fill:#9d761f" d="M0 0h.607v22.507H0z"/><path id="Rectangle_89-2" data-name="Rectangle 89" class="cls-5" transform="translate(16.458)" style="fill:#9d761f" d="M0 0h.607v22.791H0z"/><path id="Rectangle_93-2" data-name="Rectangle 93" class="cls-5" transform="rotate(-90 2.844 2.844)" style="fill:#9d761f" d="M0 0h.607v22.507H0z"/><path id="Rectangle_90-2" data-name="Rectangle 90" class="cls-5" transform="translate(19.34)" style="fill:#9d761f" d="M0 0h.607v22.791H0z"/><path id="Rectangle_92-2" data-name="Rectangle 92" class="cls-5" transform="rotate(-90 1.403 1.403)" style="fill:#9d761f" d="M0 0h.607v22.507H0z"/></g></g></g></g></g></svg>